<svg width="853" height="110" viewBox="0 0 853 110" fill="none" xmlns="http://www.w3.org/2000/svg">
<path d="M47.7422 57.4297C49.8047 57.8516 51.5859 58.8359 53.0859 60.3828C54.6328 61.8828 56.5078 64.8359 58.7109 69.2422L77.6953 107H54.9141L42.2578 80.4922C41.8828 79.7422 41.3906 78.7109 40.7812 77.3984C37.0781 69.4766 32.7188 65.5156 27.7031 65.5156H21.0938V107H0.351562V2.02344H30.3047C43.8047 2.02344 53.4844 4.41406 59.3438 9.19531C65.25 13.9766 68.2031 21.7578 68.2031 32.5391C68.2031 39.7578 66.4453 45.5 62.9297 49.7656C59.4141 54.0312 54.3516 56.5859 47.7422 57.4297ZM21.0938 19.4609V48.0781H30.8672C36.5391 48.0781 40.5938 46.9766 43.0312 44.7734C45.5156 42.5234 46.7578 38.8438 46.7578 33.7344C46.7578 28.625 45.5391 24.9687 43.1016 22.7656C40.6641 20.5625 36.5859 19.4609 30.8672 19.4609H21.0938ZM154.969 107H89.5781V2.02344H154.969V20.3047H110.32V42.9453H150.75V61.2266H110.32V88.7188H154.969V107ZM218.25 107H197.508V20.1641H170.859V2.02344H244.898V20.1641H218.25V107ZM308.039 57.4297C310.102 57.8516 311.883 58.8359 313.383 60.3828C314.93 61.8828 316.805 64.8359 319.008 69.2422L337.992 107H315.211L302.555 80.4922C302.18 79.7422 301.688 78.7109 301.078 77.3984C297.375 69.4766 293.016 65.5156 288 65.5156H281.391V107H260.648V2.02344H290.602C304.102 2.02344 313.781 4.41406 319.641 9.19531C325.547 13.9766 328.5 21.7578 328.5 32.5391C328.5 39.7578 326.742 45.5 323.227 49.7656C319.711 54.0312 314.648 56.5859 308.039 57.4297ZM281.391 19.4609V48.0781H291.164C296.836 48.0781 300.891 46.9766 303.328 44.7734C305.812 42.5234 307.055 38.8438 307.055 33.7344C307.055 28.625 305.836 24.9687 303.398 22.7656C300.961 20.5625 296.883 19.4609 291.164 19.4609H281.391ZM381.375 18.7578C376.078 18.7578 372.211 21.5937 369.773 27.2656C367.336 32.8906 366.117 42.0078 366.117 54.6172C366.117 67.1797 367.336 76.2969 369.773 81.9688C372.211 87.5938 376.078 90.4062 381.375 90.4062C386.719 90.4062 390.609 87.5938 393.047 81.9688C395.484 76.2969 396.703 67.1797 396.703 54.6172C396.703 42.0078 395.484 32.8906 393.047 27.2656C390.609 21.5937 386.719 18.7578 381.375 18.7578ZM344.531 54.6172C344.531 36.6641 347.625 23.0938 353.812 13.9062C360.047 4.71875 369.234 0.125 381.375 0.125C393.562 0.125 402.75 4.71875 408.938 13.9062C415.172 23.0938 418.289 36.6641 418.289 54.6172C418.289 72.5234 415.172 86.0703 408.938 95.2578C402.75 104.445 393.562 109.039 381.375 109.039C369.234 109.039 360.047 104.445 353.812 95.2578C347.625 86.0703 344.531 72.5234 344.531 54.6172ZM433.195 2.02344H455.484L484.734 78.3125V2.02344H503.016V107H480.867L451.477 30.7109V107H433.195V2.02344ZM588.797 107H523.406V2.02344H588.797V20.3047H544.148V42.9453H584.578V61.2266H544.148V88.7188H588.797V107ZM652.078 107H631.336V20.1641H604.688V2.02344H678.727V20.1641H652.078V107ZM741.867 57.4297C743.93 57.8516 745.711 58.8359 747.211 60.3828C748.758 61.8828 750.633 64.8359 752.836 69.2422L771.82 107H749.039L736.383 80.4922C736.008 79.7422 735.516 78.7109 734.906 77.3984C731.203 69.4766 726.844 65.5156 721.828 65.5156H715.219V107H694.477V2.02344H724.43C737.93 2.02344 747.609 4.41406 753.469 9.19531C759.375 13.9766 762.328 21.7578 762.328 32.5391C762.328 39.7578 760.57 45.5 757.055 49.7656C753.539 54.0312 748.477 56.5859 741.867 57.4297ZM715.219 19.4609V48.0781H724.992C730.664 48.0781 734.719 46.9766 737.156 44.7734C739.641 42.5234 740.883 38.8438 740.883 33.7344C740.883 28.625 739.664 24.9687 737.227 22.7656C734.789 20.5625 730.711 19.4609 724.992 19.4609H715.219ZM815.203 18.7578C809.906 18.7578 806.039 21.5937 803.602 27.2656C801.164 32.8906 799.945 42.0078 799.945 54.6172C799.945 67.1797 801.164 76.2969 803.602 81.9688C806.039 87.5938 809.906 90.4062 815.203 90.4062C820.547 90.4062 824.438 87.5938 826.875 81.9688C829.312 76.2969 830.531 67.1797 830.531 54.6172C830.531 42.0078 829.312 32.8906 826.875 27.2656C824.438 21.5937 820.547 18.7578 815.203 18.7578ZM778.359 54.6172C778.359 36.6641 781.453 23.0938 787.641 13.9062C793.875 4.71875 803.062 0.125 815.203 0.125C827.391 0.125 836.578 4.71875 842.766 13.9062C849 23.0938 852.117 36.6641 852.117 54.6172C852.117 72.5234 849 86.0703 842.766 95.2578C836.578 104.445 827.391 109.039 815.203 109.039C803.062 109.039 793.875 104.445 787.641 95.2578C781.453 86.0703 778.359 72.5234 778.359 54.6172Z" fill="#E15D38"/>
</svg>
